<svg width="117" height="150" viewBox="0 0 117 150" fill="none" xmlns="http://www.w3.org/2000/svg">
<path id="Vector" d="M58.3333 72.2187L45.9375 81.6781C45.2083 82.2844 44.4792 82.3159 43.75 81.7726C43.0208 81.2293 42.7778 80.5308 43.0208 79.677L47.7604 64.3965L35 54.2095C34.3924 53.6031 34.2101 52.907 34.4531 52.1211C34.6962 51.3353 35.2431 50.9399 36.0938 50.9351H51.7708L56.5104 36.0184C56.7535 35.1695 57.3611 34.745 58.3333 34.745C59.3056 34.745 59.9132 35.1695 60.1562 36.0184L64.8958 50.9351H80.3906C81.2413 50.9351 81.8198 51.3304 82.126 52.1211C82.4323 52.9119 82.2792 53.608 81.6667 54.2095L68.724 64.3965L73.4635 79.677C73.7066 80.5259 73.4635 81.2245 72.7344 81.7726C72.0052 82.3208 71.276 82.2893 70.5469 81.6781L58.3333 72.2187ZM58.3333 138.252L24.2448 149.531C21.8142 150.38 19.5951 150.077 17.5875 148.621C15.5799 147.166 14.5785 145.226 14.5833 142.8V96.5947C9.96528 91.5012 6.38021 85.6801 3.82813 79.1313C1.27604 72.5825 0 65.6092 0 58.2115C0 41.9608 5.65104 28.1962 16.9531 16.9177C28.2552 5.63924 42.0486 0 58.3333 0C74.6181 0 88.4115 5.63924 99.7135 16.9177C111.016 28.1962 116.667 41.9608 116.667 58.2115C116.667 65.6092 115.391 72.5825 112.839 79.1313C110.286 85.6801 106.701 91.5012 102.083 96.5947V142.8C102.083 145.226 101.08 147.166 99.0719 148.621C97.0642 150.077 94.8476 150.38 92.4219 149.531L58.3333 138.252ZM58.3333 101.87C70.4861 101.87 80.816 97.6256 89.3229 89.1364C97.8299 80.6472 102.083 70.3389 102.083 58.2115C102.083 46.0841 97.8299 35.7758 89.3229 27.2867C80.816 18.7975 70.4861 14.5529 58.3333 14.5529C46.1806 14.5529 35.8507 18.7975 27.3438 27.2867C18.8368 35.7758 14.5833 46.0841 14.5833 58.2115C14.5833 70.3389 18.8368 80.6472 27.3438 89.1364C35.8507 97.6256 46.1806 101.87 58.3333 101.87Z" fill="#FF6600"/>
</svg>
